<svg version="1.2" xmlns="http://www.w3.org/2000/svg" viewBox="0 0 270 270" width="270" height="270">
	<title>math_2-8</title>
	<style>
		tspan { white-space:pre }
		.s0 { opacity: .2;fill: var(--c-title) }
		.s1 { fill: none;stroke: var(--c-text);stroke-miterlimit:100;stroke-width: 2 }
		.s2 { fill: none;stroke: var(--c-text);stroke-miterlimit:100;stroke-width: 2;stroke-dasharray: 8,4 }
		.t3 { font-size: 20px;fill: var(--c-text); }
		.t4 { font-size: 16px;line-height: 20px;fill: var(--c-text); }
		.t5 { font-size: 16px;line-height: 13px;fill: var(--c-text); }
		.t6 { font-size: 12px;fill: var(--c-text); }
	</style>
	<path id="Layer 1" class="s0" d="m50.5 166c3-5.5 9.8-10 15.1-10h196.9c5.3 0 7.3 4.5 4.3 10l-45.8 85c-3 5.5-9.8 10-15.1 10h-196.9c-5.3 0-7.3-4.5-4.3-10z"/>
	<path id="Layer 1 copy" class="s1" d="m50.5 166c3-5.5 9.8-10 15.1-10h196.9c5.3 0 7.3 4.5 4.3 10l-45.8 85c-3 5.5-9.8 10-15.1 10h-196.9c-5.3 0-7.3-4.5-4.3-10z"/>
	<path id="Shape 1" class="s1" d="m59 185l76 68"/>
	<path id="Shape 2" class="s1" d="m233 203l-131 21 120-212"/>
	<path id="Shape 3" class="s1" d="m94.3 216.6l5.5-9.3 7.9 6.3"/>
	<path id="Shape 4" class="s1" d="m111.3 232l10-1.7-7.2-8.2"/>
	<path id="Shape 6" class="s1" d="m196 208.7l0.1-10.6 9.7-3.3"/>
	<path id="Shape 7" class="s2" d="m205.1 207v-167"/>
	<text id="α" style="transform: matrix(1,0,0,1,29.069,251.869)" >
		<tspan x="0" y="0" class="t3">α
</tspan>
	</text>
	<text id="m" style="transform: matrix(1,0,0,1,71.069,189.869)" >
		<tspan x="0" y="0" class="t3">m
</tspan>
	</text>
	<text id="a" style="transform: matrix(1,0,0,1,196.069,21.869)" >
		<tspan x="0" y="0" class="t3">a
</tspan>
	</text>
	<text id="наклонная" style="transform: matrix(.5,-0.866,.866,.5,169.211,87.552)" >
		<tspan x="-45.1" y="0" class="t4">н</tspan><tspan  y="0" class="t4">а</tspan><tspan  y="0" class="t4">к</tspan><tspan  y="0" class="t4">л</tspan><tspan  y="0" class="t4">о</tspan><tspan  y="0" class="t4">н</tspan><tspan  y="0" class="t4">н</tspan><tspan  y="0" class="t4">а</tspan><tspan  y="0" class="t4">я</tspan><tspan  y="0" class="t4">
</tspan>
	</text>
	<text id="проекция наклонной" style="transform: matrix(.991,-0.134,.134,.991,175.417,225.629)" >
		<tspan x="-40.4" y="0" class="t5">проекция
</tspan>
		<tspan x="-45.5" y="13" class="t5">наклонной
</tspan>
	</text>
	<text id="a" style="transform: matrix(1,0,0,1,212.069,194.869)" >
		<tspan x="0" y="0" class="t3">a</tspan><tspan  y="0" class="t3">
</tspan>
	</text>
	<text id="1" style="transform: matrix(1,0,0,1,224.069,198.869)" >
		<tspan x="0" y="0" class="t6">1
</tspan>
	</text>
	<text id="M" style="transform: matrix(1,0,0,1,82.069,239.869)" >
		<tspan x="0" y="0" class="t3">M
</tspan>
	</text>
</svg>