<svg version="1.2" xmlns="http://www.w3.org/2000/svg" viewBox="0 0 174 176" width="174" height="176">
	<title>math_1-0</title>
	<style>
		tspan { white-space:pre }
		.s0 { fill: none;stroke: var(--c-text);stroke-miterlimit:100;stroke-width: 2 }
		.s1 { fill: none;stroke: var(--c-text);stroke-linejoin: round;stroke-width: 2 }
		.s2 { fill: none;stroke: var(--c-title);stroke-linejoin: round;stroke-width: 2 }
		.t3 { font-size: 24px;fill: var(--c-text); }
	</style>
	<path id="Layer 2" class="s0" d="m87 169c-44.8 0-81-36.2-81-81 0-44.8 36.2-81 81-81 44.8 0 81 36.2 81 81 0 44.8-36.2 81-81 81z"/>
	<path id="Layer 3" class="s1" d="m50 160l-31-115 96 119 5-149z"/>
	<path id="Layer 4" class="s1" d="m30 79c0 0 7.9 2.4 9-9"/>
	<path id="Layer 5" class="s1" d="m120 43c0 0-8 7.2-13-1"/>
	<path id="Layer 6" class="s2" d="m115 164c0 0-35.2 13.1-65-4"/>
	<text id="1" style="transform: matrix(.634,0,0,.634,36.366,92.407)" >
		<tspan x="0" y="0" class="t3">1</tspan><tspan  y="0" class="t3">
</tspan>
	</text>
	<text id="2" style="transform: matrix(.634,0,0,.634,107.366,59.407)" >
		<tspan x="0" y="0" class="t3">2</tspan><tspan  y="0" class="t3">
</tspan>
	</text>
</svg>