<svg version="1.2" xmlns="http://www.w3.org/2000/svg" viewBox="0 0 239 112" width="239" height="112">
	<title>math_6-2_1</title>
	<style>
		tspan { white-space:pre }
		.s0_1 { fill: var(--c-text) }
		.s1_1 { fill: var(--c-title) }
		.t2_1 { font-size: 20px;fill: var(--c-text); }
	</style>
	<path id="Shape 7" class="s0_1" d="m7.4 109.2l-1.4-1.4 71.8-71.8-2.8-2.8 14.1-7.1-7 14.2-2.9-2.9z"/>
	<path id="Shape 7 copy" class="s0_1" d="m89 28v-2h132v-4l15 5-15 5v-4z"/>
	<path id="Shape 7 copy 2" class="s1_1" d="m6.3 107.9l-0.6-1.8 217.6-75.1-1.3-3.8 15.8-0.1-12.6 9.6-1.3-3.8z"/>
	<text id="" style="transform: matrix(1,0,0,1,42,37)" >
	</text>
	<text id="a" style="transform: matrix(1,0,0,1,22,62)" >
		<tspan x="0" y="0" class="t2_1">a
</tspan>
	</text>
	<path id="Shape 9" class="s0_1" d="m22.8 48.4v-1h9.7v-2.5l3 3-3 3v-2.5z"/>
	<text id="b" style="transform: matrix(1,0,0,1,151,22)" >
		<tspan x="0" y="0" class="t2_1">b
</tspan>
	</text>
	<path id="Shape 9 copy" class="s0_1" d="m151.8 5.4v-1h9.7v-2.5l3 3-3 3v-2.5z"/>
	<path id="Shape 9 copy 2" class="s0_1" d="m128.8 74.4v-1h9.7v-2.5l3 3-3 3v-2.5z"/>
	<text id="c" style="transform: matrix(1,0,0,1,128,89)" >
		<tspan x="0" y="0" class="t2_1">c</tspan><tspan  y="0" class="t2_1">
</tspan>
	</text>
</svg>