<svg version="1.2" xmlns="http://www.w3.org/2000/svg" viewBox="0 0 255 240" width="255" height="240">
	<title>math_7-1</title>
	<style>
		tspan { white-space:pre }
		.s0 { fill: none;stroke: var(--c-text);stroke-linecap: round;stroke-linejoin: round;stroke-width: 1.5;stroke-dasharray: 0,3 }
		.s1 { fill: none;stroke: var(--c-title);stroke-miterlimit:100;stroke-width: 2 }
		.s2 { fill: var(--c-text) }
		.s3 { fill: var(--c-title) }
		.t4 { font-size: 20px;fill: var(--c-text); }
	</style>
	<path id="Shape 10" class="s0" d="m106 95v40h68"/>
	<path id="Shape 8" class="s1" d="m104.7 233.5c-54.6 0-98.7-44.1-98.7-98.8 0-54.6 44.1-98.7 98.7-98.7 54.7 0 98.8 44.1 98.8 98.7 0 54.7-44.1 98.8-98.8 98.8z"/>
	<path id="Shape 6" class="s2" d="m4 95.3v-2h236v-4l15 5-15 5v-4z"/>
	<path id="Shape 7" class="s2" d="m174.8 236h-2v-218h-4l5-15 5 15h-4z"/>
	<path id="Shape 9" class="s3" d="m106 138c-1.7 0-3-1.3-3-3 0-1.7 1.3-3 3-3 1.7 0 3 1.3 3 3 0 1.7-1.3 3-3 3z"/>
	<text id="y" style="transform: matrix(1,0,0,1,151,5)" >
		<tspan x="0" y="15.2" class="t4">y
</tspan>
	</text>
	<text id="a" style="transform: matrix(1,0,0,1,100,71)" >
		<tspan x="0" y="15.2" class="t4">a
</tspan>
	</text>
	<text id="b" style="transform: matrix(1,0,0,1,181,126)" >
		<tspan x="0" y="15.2" class="t4">b
</tspan>
	</text>
	<text id="x" style="transform: matrix(1,0,0,1,230,100)" >
		<tspan x="0" y="15.2" class="t4">x
</tspan>
	</text>
</svg>