<svg version="1.2" xmlns="http://www.w3.org/2000/svg" viewBox="0 0 224 54" width="224" height="54">
	<title>math_3-21</title>
	<style>
		tspan { white-space:pre }
		.s0 { fill: none;stroke: var(--c-title);stroke-miterlimit:100 }
		.s1 { fill: var(--c-text) }
		.t2 { font-size: 20px;fill: var(--c-text); }
		.s3 { fill: none;stroke: var(--c-text);stroke-miterlimit:100 }
		.s4 { fill: var(--c-text);stroke: var(--c-title);stroke-miterlimit:100;stroke-width: 2 }
		.s5 { fill: var(--c-title) }
	</style>
	<path id="Shape 4" class="s0" d="m48 27l5.5-5.5"/>
	<path id="Shape 4" class="s0" d="m53 27l5.5-5.5"/>
	<path id="Shape 4" class="s0" d="m58 27l5.5-5.5"/>
	<path id="Shape 4" class="s0" d="m63 27l5.5-5.5"/>
	<path id="Shape 4" class="s0" d="m68 27l5.5-5.5"/>
	<path id="Shape 4" class="s0" d="m73 27l5.5-5.5"/>
	<path id="Shape 4" class="s0" d="m78 27l5.5-5.5"/>
	<path id="Shape 4" class="s0" d="m83 27l5.5-5.5"/>
	<path id="Shape 4" class="s0" d="m88 27l5.5-5.5"/>
	<path id="Shape 4 copy" class="s0" d="m101 27l5.5-5.5"/>
	<path id="Shape 4 copy" class="s0" d="m106 27l5.5-5.5"/>
	<path id="Shape 4 copy" class="s0" d="m111 27l5.5-5.5"/>
	<path id="Shape 4 copy" class="s0" d="m116 27l5.5-5.5"/>
	<path id="Shape 4 copy" class="s0" d="m121 27l5.5-5.5"/>
	<path id="Shape 4 copy" class="s0" d="m126 27l5.5-5.5"/>
	<path id="Shape 4 copy" class="s0" d="m131 27l5.5-5.5"/>
	<path id="Shape 4 copy" class="s0" d="m136 27l5.5-5.5"/>
	<path id="Shape 4 copy" class="s0" d="m141 27l5.5-5.5"/>
	<path id="Shape 1" class="s1" d="m3.6 27.6v-2h200.2v-4l15 5-15 5v-4z"/>
	<text id="x" style="transform: matrix(1,0,0,1,202.464,49.073)" >
		<tspan x="0" y="0" class="t2">x</tspan><tspan  y="0" class="t2">
</tspan>
	</text>
	<text id="5" style="transform: matrix(1,0,0,1,141.464,49.073)" >
		<tspan x="0" y="0" class="t2">5
</tspan>
	</text>
	<text id="2" style="transform: matrix(1,0,0,1,90.464,49.073)" >
		<tspan x="0" y="0" class="t2">2</tspan><tspan  y="0" class="t2">
</tspan>
	</text>
	<text id="-2" style="transform: matrix(1,0,0,1,34.464,49.073)" >
		<tspan x="0" y="0" class="t2">-</tspan><tspan  y="0" class="t2">2
</tspan>
	</text>
	<path id="Shape 3" class="s3" d="m173 13h12"/>
	<path id="Shape 3" class="s3" d="m179 7v12"/>
	<path id="Shape 3 copy 2" class="s3" d="m20 13h12"/>
	<path id="Shape 3 copy 2" class="s3" d="m26 7v12"/>
	<path id="Shape 3 copy 3" class="s3" d="m116 13h12"/>
	<path id="Shape 3 copy 4" class="s3" d="m65 13h12"/>
	<path id="Shape 2" class="s4" d="m97 30c-1.7 0-3-1.3-3-3 0-1.7 1.3-3 3-3 1.7 0 3 1.3 3 3 0 1.7-1.3 3-3 3z"/>
	<path id="Shape 2 copy" class="s5" d="m44 30c-1.7 0-3-1.3-3-3 0-1.7 1.3-3 3-3 1.7 0 3 1.3 3 3 0 1.7-1.3 3-3 3z"/>
	<path id="Shape 2 copy 2" class="s5" d="m147 30c-1.7 0-3-1.3-3-3 0-1.7 1.3-3 3-3 1.7 0 3 1.3 3 3 0 1.7-1.3 3-3 3z"/>
</svg>