<svg version="1.2" xmlns="http://www.w3.org/2000/svg" viewBox="0 0 203 177" width="203" height="177">
	<title>math_1-25</title>
	<style>
		tspan { white-space:pre }
		.s0 { fill: none;stroke: var(--c-text);stroke-miterlimit:100;stroke-width: 2 }
		.s1 { fill: none;stroke: var(--c-title);stroke-linejoin: round;stroke-width: 1.5 }
		.s2 { fill: none;stroke: var(--c-title);stroke-linejoin: round;stroke-width: 2 }
		.s3 { fill: var(--c-title) }
		.t4 { font-size: 20px;fill: var(--c-text); }
		.t5 { font-size: 20px;fill: var(--c-title); }
	</style>
	<path id="Layer 1" class="s0" d="m23 74l49-50 122 80-127 57z"/>
	<path id="Layer 3" class="s1" d="m30 60l6 7"/>
	<path id="Layer 3 copy" class="s1" d="m57 33l6 7"/>
	<path id="Layer 3 copy 2" class="s1" d="m96 34l-4.9 7.4"/>
	<path id="Layer 3 copy 3" class="s1" d="m99 36l-4.9 7.4"/>
	<path id="Layer 3 copy 4" class="s1" d="m158 75l-4.9 7.4"/>
	<path id="Layer 3 copy 5" class="s1" d="m161 77l-4.9 7.4"/>
	<path id="Layer 3 copy 6" class="s1" d="m167.8 120.9l-5-8.4"/>
	<path id="Layer 3 copy 7" class="s1" d="m163.8 122.9l-5-8.4"/>
	<path id="Layer 3 copy 8" class="s1" d="m159.8 124.9l-5-8.4"/>
	<path id="Layer 3 copy 9" class="s1" d="m103.8 149.9l-5-8.4"/>
	<path id="Layer 3 copy 10" class="s1" d="m99.8 151.9l-5-8.4"/>
	<path id="Layer 3 copy 11" class="s1" d="m95.8 153.9l-5-8.4"/>
	<path id="Shape 1" class="s1" d="m60.7 142.5l-8.6-2.4 3.6-8.9"/>
	<path id="Shape 1 copy" class="s1" d="m39.7 98.5l-8.6-2.4 3.6-8.9"/>
	<path id="Layer 2" class="s2" d="m46.4 50.2l79.4 9.3 3.5 73-84.4-16.6z"/>
	<path id="Shape 2" class="s3" d="m45.5 52c-1.4 0-2.5-1.1-2.5-2.5 0-1.4 1.1-2.5 2.5-2.5 1.4 0 2.5 1.1 2.5 2.5 0 1.4-1.1 2.5-2.5 2.5z"/>
	<path id="Shape 2 copy" class="s3" d="m126.5 61c-1.4 0-2.5-1.1-2.5-2.5 0-1.4 1.1-2.5 2.5-2.5 1.4 0 2.5 1.1 2.5 2.5 0 1.4-1.1 2.5-2.5 2.5z"/>
	<path id="Shape 2 copy 2" class="s3" d="m44.5 119c-1.4 0-2.5-1.1-2.5-2.5 0-1.4 1.1-2.5 2.5-2.5 1.4 0 2.5 1.1 2.5 2.5 0 1.4-1.1 2.5-2.5 2.5z"/>
	<path id="Shape 2 copy 3" class="s3" d="m129.5 136c-1.4 0-2.5-1.1-2.5-2.5 0-1.4 1.1-2.5 2.5-2.5 1.4 0 2.5 1.1 2.5 2.5 0 1.4-1.1 2.5-2.5 2.5z"/>
	<text id="A" style="transform: matrix(1,0,0,1,5,81)" >
		<tspan x="0" y="0" class="t4">A
</tspan>
	</text>
	<text id="N" style="transform: matrix(1,0,0,1,24,128)" >
		<tspan x="0" y="0" class="t5">N
</tspan>
	</text>
	<text id="M" style="transform: matrix(1,0,0,1,25,46)" >
		<tspan x="0" y="0" class="t5">M
</tspan>
	</text>
	<text id="F" style="transform: matrix(1,0,0,1,135,55)" >
		<tspan x="0" y="0" class="t5">F
</tspan>
	</text>
	<text id="K" style="transform: matrix(1,0,0,1,133,153)" >
		<tspan x="0" y="0" class="t5">K</tspan><tspan  y="0" class="t5">
</tspan>
	</text>
	<text id="B" style="transform: matrix(1,0,0,1,67,19)" >
		<tspan x="0" y="0" class="t4">B
</tspan>
	</text>
	<text id="C" style="transform: matrix(1,0,0,1,184,91)" >
		<tspan x="0" y="0" class="t4">C
</tspan>
	</text>
	<text id="D" style="transform: matrix(1,0,0,1,43,171)" >
		<tspan x="0" y="0" class="t4">D
</tspan>
	</text>
</svg>