<svg version="1.2" xmlns="http://www.w3.org/2000/svg" viewBox="0 0 290 290" width="290" height="290">
	<title>math_2-4</title>
	<style>
		tspan { white-space:pre }
		.s0 { opacity: .2;fill: var(--c-text) }
		.s1 { fill: none;stroke: var(--c-text);stroke-miterlimit:100;stroke-width: 2 }
		.s2 { fill: none;stroke: var(--c-text);stroke-miterlimit:100;stroke-width: 2;stroke-dasharray: 8,4 }
		.s3 { opacity: .2;fill: var(--c-title) }
		.s4 { fill: none;stroke: var(--c-text);stroke-linejoin: round;stroke-width: 2;stroke-dasharray: 8,4 }
		.t5 { font-size: 20px;fill: var(--c-text); }
	</style>
	<g id="planes">
		<path id="Layer 1" class="s0" d="m63.4 100.7c3.8-4.9 11.1-9 16.2-9h198.2c5.1 0 6.1 4.1 2.2 9l-56.2 72c-3.9 5-11.2 9-16.3 9h-198.2c-5.1 0-6.1-4-2.2-9z"/>
		<path id="Layer 1 copy 2" class="s1" d="m200 92l78.1 0.1c5.1 0 5.8 3.7 1.9 8.6l-56.2 72c-3.9 5-11.2 9-16.3 9h-198.2c-5.1 0-6.1-4-2.2-9l56.3-72c3.8-4.9 11.1-8.7 16.2-8.7h13.4"/>
		<path id="Shape 2" class="s2" d="m93 92h108"/>
		<path id="Shape 1 copy" class="s3" d="m89.2 78.7c-2.3-7-0.3-15.5 4.3-19.2l68.3-53.8c4.6-3.6 10.2-1 12.4 6l64.9 199.7c2.3 6.9 0.3 15.5-4.3 19.2l-68.3 53.8c-4.6 3.6-10.1 1-12.4-6z"/>
		<path id="Shape 1 copy 2" class="s1" d="m226 170l13.1 41.4c2.3 6.9 0.3 15.5-4.3 19.2l-68.3 53.8c-4.6 3.6-10.1 1-12.4-6l-64.9-199.7c-2.3-7-0.3-15.5 4.3-19.2l68.3-53.8c4.6-3.6 10.2-1 12.4 6l25.8 80.3"/>
		<path id="Shape 3" class="s2" d="m200 92l26 79"/>
		<path id="Shape 4" class="s1" d="m123 182l78-90"/>
	</g>
	<path id="Shape 5" class="s4" d="m162 137h-53"/>
	<path id="Shape 6" class="s1" d="m52 137h56.2"/>
	<path id="Shape 7" class="s1" d="m162 137l-41-70"/>
	<path id="Shape 8" class="s1" d="m172 126l-9-15-11 8"/>
	<path id="Shape 9" class="s1" d="m154 146h-18l7-8"/>
	<path id="Shape 10" class="s1" d="m130 137c0 0-12.5-24.8 14-30"/>
	<text id="α" style="transform: matrix(1,0,0,1,25,168)" >
		<tspan x="0" y="0" class="t5">α</tspan><tspan  y="0" class="t5">
</tspan>
	</text>
	<text id="a" style="transform: matrix(1,0,0,1,65,121)" >
		<tspan x="0" y="0" class="t5">a
</tspan>
	</text>
	<text id="φ" style="transform: matrix(1,0,0,1,110,115)" >
		<tspan x="0" y="0" class="t5">φ
</tspan>
	</text>
	<text id="b" style="transform: matrix(1,0,0,1,103,78)" >
		<tspan x="0" y="0" class="t5">b
</tspan>
	</text>
	<text id="C" style="transform: matrix(1,0,0,1,167,147)" >
		<tspan x="0" y="0" class="t5">C
</tspan>
	</text>
	<text id="β" style="transform: matrix(1,0,0,1,152,38)" >
		<tspan x="0" y="0" class="t5">β
</tspan>
	</text>
</svg>