<svg version="1.2" xmlns="http://www.w3.org/2000/svg" viewBox="0 0 240 219" width="240" height="219">
	<title>math_3-17</title>
	<style>
		tspan { white-space:pre }
		.s0 { fill: none;stroke: var(--c-text);stroke-miterlimit:100;stroke-width: 1.5 }
		.s1 { fill: var(--c-text) }
		.s2 { fill: none;stroke: var(--c-title);stroke-miterlimit:100;stroke-width: 2 }
		.s3 { fill: var(--c-title) }
		.t3 { font-size: 20px;fill: var(--c-text); }
	</style>
	<path id="Layer 1" class="s0" d="m155 128.4v6.5"/>
	<path id="Shape 6" class="s1" d="m6.6 132.3v-2h214.6v-4l15 5-15 5v-4z"/>
	<path id="Shape 7" class="s1" d="m133.8 214.3h-2v-195.6h-4l5-15 5 15h-4z"/>
	<path id="Shape 8" class="s0" d="m99.7 117.1c0 0 12 1.5 3.8 14.3"/>
	<path id="Shape 4" class="s2" d="m6 182l215-149"/>
	<path id="Shape 5" class="s3" d="m133 97c-1.7 0-3-1.3-3-3 0-1.7 1.3-3 3-3 1.7 0 3 1.3 3 3 0 1.7-1.3 3-3 3z"/>
	<text id="x" style="transform: matrix(1,0,0,1,222,138)" >
		<tspan x="0" y="15.2" class="t3">x
</tspan>
	</text>
	<text id="y" style="transform: matrix(1,0,0,1,141,4)" >
		<tspan x="0" y="15.2" class="t3">y
</tspan>
	</text>
	<text id="1" style="transform: matrix(1,0,0,1,157,134)" >
		<tspan x="0" y="15.2" class="t3">1
</tspan>
	</text>
	<text id="0" style="transform: matrix(1,0,0,1,115,136)" >
		<tspan x="0" y="15.2" class="t3">0
</tspan>
	</text>
	<text id="α" style="transform: matrix(1,0,0,1,109,111)" >
		<tspan x="0" y="15.2" class="t3">α
</tspan>
	</text>
	<text id="b" style="transform: matrix(1,0,0,1,113,76)" >
		<tspan x="0" y="15.2" class="t3">b
</tspan>
	</text>
</svg>