<svg version="1.2" xmlns="http://www.w3.org/2000/svg" viewBox="0 0 645 418" width="300" height="194">
	<title>phy_0-113</title>
	<style>
		tspan { white-space:pre }
		.s0 { fill: var(--c-text) }
		.s1 { opacity: .3;fill: var(--c-text) }
		.t2 { font-size: 67px;fill: var(--c-text); }
		.t3 { font-size: 60px;fill: var(--c-text); }
		.t4 { font-size: 45px;fill: var(--c-text); }
		.t5 { font-size: 24px;fill: var(--c-text); }
		.s6 { fill: none;stroke: var(--c-text);stroke-miterlimit:100;stroke-width: 3 }
	</style>
	<path id="Shape 3" class="s0" d="m0 209.2v-4h646v4z"/>
	<path id="Shape 8" class="s1" d="m-4 208.3h652v213.4h-652z"/>
	<path id="Shape 4" class="s0" d="m321.1 0h4v418h-4z"/>
	<path id="Shape 2" class="s0" d="m56.9 408.3l1.7 5.9 263.3-206.4-1.7-5.9z"/>
	<path id="Shape 5" class="s0" d="m322.9 208l4.2-5.4 242.5 190-4.3 5.4z"/>
	<path id="Shape 5 copy" class="s0" d="m322 211v-6.9l229-1.4v6.9z"/>
	<text id="α" style="transform: matrix(1,0,0,1,225.617,338.588)" >
		<tspan x="0" y="0" class="t2">α
</tspan>
	</text>
	<text id="n" style="transform: matrix(1,0,0,1,577,308)" >
		<tspan x="0" y="0" class="t3">n</tspan><tspan  y="0" class="t3">
</tspan>
	</text>
	<text id="1" style="transform: matrix(1,0,0,1,609,325)" >
		<tspan x="0" y="0" class="t4">1
</tspan>
	</text>
	<text id="n" style="transform: matrix(1,0,0,1,148,111)" >
		<tspan x="0" y="0" class="t3">n</tspan><tspan  y="0" class="t3">
</tspan>
	</text>
	<text id="1" style="transform: matrix(1,0,0,1,180,128)" >
		<tspan x="0" y="0" class="t4">1
</tspan>
	</text>
	<text id="n" style="transform: matrix(1,0,0,1,572,109)" >
		<tspan x="0" y="0" class="t3">n</tspan><tspan  y="0" class="t3">
</tspan>
	</text>
	<text id="пр" style="transform: matrix(.717,0,0,.717,265.132,355.659)" >
		<tspan x="0" y="0" class="t3">п</tspan><tspan  y="0" class="t3">р
</tspan>
	</text>
	<text id="2" style="transform: matrix(1,0,0,1,604,129)" >
		<tspan x="0" y="0" class="t4">2
</tspan>
	</text>
	<text id="n" style="transform: matrix(1,0,0,1,39,109)" >
		<tspan x="0" y="0" class="t3">n</tspan><tspan  y="0" class="t3">
</tspan>
	</text>
	<text id="2" style="transform: matrix(1,0,0,1,71,129)" >
		<tspan x="0" y="0" class="t4">2
</tspan>
	</text>
	<text id="&lt;" style="transform: matrix(2.55,0,0,2.55,100.45,114.693)" >
		<tspan x="0" y="0" class="t5">&lt;
</tspan>
	</text>
	<path id="Shape 6" class="s6" d="m322 309.4c0 0-56.4 5.2-81.7-44.7"/>
	<path id="Shape 7 copy" class="s6" d="m324.1 309.1c0 0 40.5 4.8 79-37.8"/>
	<path id="Shape 9" class="s0" d="m293.3 241.3l-13.9-19.2 47.6-19.7z"/>
	<path id="Shape 9 copy" class="s0" d="m550.6 393.8l14.3-17.1 28.9 38.7z"/>
	<path id="Shape 9 copy 2" class="s0" d="m549.6 217.8l-0.2-22.3 47.1 10.8z"/>
</svg>