<svg version="1.2" xmlns="http://www.w3.org/2000/svg" viewBox="0 0 645 418" width="300" height="194">
	<title>phy_0-109</title>
	<style>
		tspan { white-space:pre }
		.s0 { fill: var(--c-text) }
		.s1 { opacity: .3;fill: var(--c-text) }
		.t2 { font-size: 67px;fill: var(--c-text); }
		.t3 { font-size: 60px;fill: var(--c-text); }
		.t4 { font-size: 45px;fill: var(--c-text); }
		.s5 { fill: none;stroke: var(--c-text);stroke-miterlimit:100;stroke-width: 3 }
	</style>
	<path id="Shape 3" class="s0" d="m0 209.2v-4h646v4z"/>
	<path id="Shape 8" class="s1" d="m-4 208.3h652v213.4h-652z"/>
	<path id="Shape 4" class="s0" d="m321.1 0h4v418h-4z"/>
	<path id="Shape 2" class="s0" d="m-1.1 54.1l2.2-4.5 322 157.2-2.2 4.4z"/>
	<path id="Shape 5" class="s0" d="m321.5 210.9l4.7-3.8 166 209-4.7 3.8z"/>
	<text id="α" style="transform: matrix(1,0,0,1,267.617,168.588)" >
		<tspan x="0" y="0" class="t2">α
</tspan>
	</text>
	<text id="β" style="transform: matrix(.691,0,0,.691,333.806,294.313)" >
		<tspan x="0" y="0" class="t2">β
</tspan>
	</text>
	<text id="n" style="transform: matrix(1,0,0,1,572,107)" >
		<tspan x="0" y="0" class="t3">n</tspan><tspan  y="0" class="t3">
</tspan>
	</text>
	<text id="1" style="transform: matrix(1,0,0,1,604,124)" >
		<tspan x="0" y="0" class="t4">1
</tspan>
	</text>
	<text id="n copy" style="transform: matrix(1,0,0,1,575,332)" >
		<tspan x="0" y="0" class="t3">n</tspan><tspan  y="0" class="t3">
</tspan>
	</text>
	<text id="2" style="transform: matrix(1,0,0,1,607,352)" >
		<tspan x="0" y="0" class="t4">2
</tspan>
	</text>
	<path id="Shape 6" class="s5" d="m232 162.5c0 0 7.5-59.5 93.2-48.3"/>
	<path id="Shape 7" class="s5" d="m324.3 323.4c0 0 44.8 7.8 68.1-28"/>
	<path id="Shape 7" class="s5" d="m329 324c0 0 39.2 7.6 62-26"/>
	<path id="Shape 7 copy" class="s5" d="m322.3 313.4c0 0 41.2 10.9 64.5-24.9"/>
	<path id="Shape 7 copy" class="s5" d="m327 314c0 0 39.2 7.6 62-26"/>
	<path id="Shape 9" class="s0" d="m127.3 124.1l9.7-18.1 33.4 29.6z"/>
	<path id="Shape 9 copy" class="s0" d="m433.4 364.3l15.8-13.2 20 39.9z"/>
</svg>