<svg version="1.2" xmlns="http://www.w3.org/2000/svg" viewBox="0 0 65 64" width="65" height="64">
	<style>
		.s0 { fill: #fefefe }
	</style>
	<path class="s0" d="m32.2-0.1c-18 0-32.6 14.6-32.6 32.6 0 14.4 9.4 26.6 22.3 30.9 1.6 0.3 2.2-0.7 2.2-1.6 0-0.7 0-2.8 0-5.5-9.1 2-11-4.4-11-4.4-1.5-3.7-3.6-4.7-3.6-4.7-2.9-2.1 0.2-2 0.2-2 3.3 0.2 5 3.3 5 3.3 2.9 5 7.6 3.6 9.5 2.7 0.3-2.1 1.1-3.5 2.1-4.3-7.3-0.8-14.9-3.6-14.9-16.1 0-3.6 1.3-6.5 3.4-8.8-0.3-0.8-1.5-4.1 0.3-8.6 0 0 2.7-0.9 9 3.4 2.6-0.8 5.4-1.1 8.1-1.1 2.8 0 5.6 0.3 8.2 1.1 6.2-4.3 8.9-3.4 8.9-3.4 1.8 4.5 0.7 7.8 0.4 8.6 2 2.3 3.3 5.2 3.3 8.8 0 12.5-7.6 15.3-14.9 16.1 1.2 1 2.2 3 2.2 6 0 4.4 0 7.9 0 8.9 0 0.9 0.6 1.9 2.2 1.6 13-4.3 22.3-16.5 22.3-30.9 0-18-14.6-32.6-32.6-32.6z"/>
</svg>