<svg version="1.2" xmlns="http://www.w3.org/2000/svg" viewBox="0 0 239 239" width="239" height="239">
	<title>math_7-6</title>
	<style>
		tspan { white-space:pre }
		.s0 { fill: var(--c-text) }
		.s1 { fill: none;stroke: var(--c-title);stroke-miterlimit:100;stroke-width: 2 }
		.t2 { font-size: 20px;fill: var(--c-text); }
		.s3 { fill: none;stroke: var(--c-text);stroke-miterlimit:100 }
	</style>
	<path id="Shape 6" class="s0" d="m1 118.3v-2h221v-4l15 5-15 5v-4z"/>
	<path id="Shape 7" class="s0" d="m119.8 234h-2v-218h-4l5-15 5 15h-4z"/>
	<path id="Shape 8" class="s1" d="m63.3 117.6l55.6-86.3 56.5 86.2-56.2 86.5z"/>
	<text id="0" style="transform: matrix(1,0,0,1,102,122)" >
		<tspan x="0" y="15.2" class="t2">0
</tspan>
	</text>
	<text id="y" style="transform: matrix(1,0,0,1,96,1)" >
		<tspan x="0" y="15.2" class="t2">y
</tspan>
	</text>
	<text id="x" style="transform: matrix(1,0,0,1,222,125)" >
		<tspan x="0" y="15.2" class="t2">x
</tspan>
	</text>
	<text id="a" style="transform: matrix(1,0,0,1,182,135)" >
		<tspan x="0" y="15.2" class="t2">a
</tspan>
	</text>
	<text id="c" style="transform: matrix(1,0,0,1,182,117)" >
		<tspan x="0" y="15.2" class="t2">c
</tspan>
	</text>
	<path id="Shape 14 copy" class="s3" d="m176.7 135h21.3"/>
	<text id="a copy" style="transform: matrix(1,0,0,1,45,134)" >
		<tspan x="0" y="15.2" class="t2">a
</tspan>
	</text>
	<text id="c copy" style="transform: matrix(1,0,0,1,45,116)" >
		<tspan x="0" y="15.2" class="t2">c
</tspan>
	</text>
	<path id="Shape 14 copy 2" class="s3" d="m39.7 134h21.3"/>
	<path id="Shape 14 copy 5" class="s3" d="m28.9 134h7.3"/>
	<text id="b" style="transform: matrix(1,0,0,1,138,219)" >
		<tspan x="0" y="15.2" class="t2">b
</tspan>
	</text>
	<text id="c copy 2" style="transform: matrix(1,0,0,1,138,199)" >
		<tspan x="0" y="15.2" class="t2">c
</tspan>
	</text>
	<path id="Shape 14 copy 3" class="s3" d="m132.7 217h21.3"/>
	<path id="Shape 14 copy 6" class="s3" d="m121.9 217h7.3"/>
	<text id="b copy" style="transform: matrix(1,0,0,1,133,27)" >
		<tspan x="0" y="15.2" class="t2">b
</tspan>
	</text>
	<text id="c copy 3" style="transform: matrix(1,0,0,1,133,7)" >
		<tspan x="0" y="15.2" class="t2">c
</tspan>
	</text>
	<path id="Shape 14 copy 4" class="s3" d="m127.7 25h21.3"/>
</svg>