<svg version="1.2" xmlns="http://www.w3.org/2000/svg" viewBox="0 0 186 188" width="186" height="188">
	<title>math_1-2</title>
	<style>
		tspan { white-space:pre }
		.s0 { fill: none;stroke: var(--c-text);stroke-miterlimit:100;stroke-width: 2 }
		.s1 { fill: var(--c-text) }
		.s2 { fill: none;stroke: var(--c-text);stroke-linejoin: round;stroke-width: 2 }
		.s3 { fill: none;stroke: var(--c-title);stroke-linejoin: round;stroke-width: 2 }
		.t4 { font-size: 24px;fill: var(--c-text); }
	</style>
	<path id="Layer 2" class="s0" d="m99 169c-44.8 0-81-36.2-81-81 0-44.8 36.2-81 81-81 44.8 0 81 36.2 81 81 0 44.8-36.2 81-81 81z"/>
	<path id="Shape 1" class="s1" d="m99 91c-1.7 0-3-1.3-3-3 0-1.7 1.3-3 3-3 1.7 0 3 1.3 3 3 0 1.7-1.3 3-3 3z"/>
	<path id="Shape 1 copy" class="s1" d="m17 179c-1.7 0-3-1.3-3-3 0-1.7 1.3-3 3-3 1.7 0 3 1.3 3 3 0 1.7-1.3 3-3 3z"/>
	<path id="Layer 3" class="s2" d="m18 36.5l-0.9 139.8 157.9-12.8"/>
	<path id="Layer 4" class="s2" d="m99 88.4l-80.9 1.9"/>
	<path id="Layer 6" class="s3" d="m13 136h8"/>
	<path id="Layer 6 copy" class="s3" d="m13 141h8"/>
	<path id="Layer 6 copy 2" class="s3" d="m57 169v8"/>
	<path id="Layer 6 copy 3" class="s3" d="m52 169v8"/>
	<path id="Layer 5" class="s2" d="m29 91v12l-11.4 0.5"/>
	<text id="O" style="transform: matrix(.634,0,0,.634,88.366,78.407)" >
		<tspan x="0" y="0" class="t4">O
</tspan>
	</text>
	<text id="R" style="transform: matrix(.634,0,0,.634,49.366,82.407)" >
		<tspan x="0" y="0" class="t4">R
</tspan>
	</text>
</svg>