<svg version="1.2" xmlns="http://www.w3.org/2000/svg" viewBox="0 0 280 283" width="280" height="283">
	<title>math_3-18</title>
	<style>
		tspan { white-space:pre }
		.s0 { fill: none;stroke: var(--c-text);stroke-miterlimit:100;stroke-width: 1.5 }
		.s1 { fill: var(--c-text) }
		.s2 { fill: none;stroke: var(--c-text);stroke-miterlimit:100;stroke-width: 1.5;stroke-dasharray: 6,3 }
		.s3 { fill: var(--c-title) }
		.s4 { fill: none;stroke: var(--c-title);stroke-miterlimit:100;stroke-width: 2 }
		.t5 { font-size: 20px;fill: var(--c-text); }
		.t6 { font-size: 12px;fill: var(--c-text); }
	</style>
	<path id="Layer 1" class="s0" d="m95 160.4v6.5"/>
	<path id="Shape 6" class="s1" d="m2.8 164.3v-2h262.2v-4l15 5-15 5v-4z"/>
	<path id="Shape 7" class="s1" d="m60.8 280h-2v-263h-4l5-15 5 15h-4z"/>
	<path id="Shape 8" class="s2" d="m139 250v-86"/>
	<path id="Shape 5" class="s3" d="m139 166c-1.7 0-3-1.3-3-3 0-1.7 1.3-3 3-3 1.7 0 3 1.3 3 3 0 1.7-1.3 3-3 3z"/>
	<path id="Layer 2" class="s4" d="m31.4 29c0 0 53.8 221.4 107.2 221.2 53.2-0.2 105.9-221.2 105.9-221.2"/>
	<text id="x" style="transform: matrix(1,0,0,1,261,169)" >
		<tspan x="0" y="15.2" class="t5">x
</tspan>
	</text>
	<text id="y" style="transform: matrix(1,0,0,1,67,5)" >
		<tspan x="0" y="15.2" class="t5">y
</tspan>
	</text>
	<text id="1" style="transform: matrix(1,0,0,1,89,172)" >
		<tspan x="0" y="15.2" class="t5">1
</tspan>
	</text>
	<text id="0" style="transform: matrix(1,0,0,1,40,171)" >
		<tspan x="0" y="15.2" class="t5">0
</tspan>
	</text>
	<text id="x" style="transform: matrix(1,0,0,1,133,139)" >
		<tspan x="0" y="15.2" class="t5">x
</tspan>
	</text>
	<text id="0" style="transform: matrix(1,0,0,1,145,149)" >
		<tspan x="0" y="9.1" class="t6">0
</tspan>
	</text>
</svg>