<svg version="1.2" xmlns="http://www.w3.org/2000/svg" viewBox="0 0 166 159" width="166" height="159">
	<title>math_1-38</title>
	<style>
		tspan { white-space:pre }
		.s0 { fill: none;stroke: var(--c-text);stroke-miterlimit:100;stroke-width: 2 }
		.s1 { fill: var(--c-text) }
		.s2 { fill: none;stroke: var(--c-text);stroke-linejoin: round;stroke-width: 1.5 }
		.s3 { fill: none;stroke: var(--c-title);stroke-linejoin: round;stroke-width: 2 }
		.t4 { font-size: 20px;fill: var(--c-text); }
	</style>
	<path id="Shape 1" class="s0" d="m89.5 148c-36.8 0-66.5-29.7-66.5-66.5 0-36.8 29.7-66.5 66.5-66.5 36.8 0 66.5 29.7 66.5 66.5 0 36.8-29.7 66.5-66.5 66.5z"/>
	<path id="Shape 2" class="s1" d="m89 84c-1.1 0-2-0.9-2-2 0-1.1 0.9-2 2-2 1.1 0 2 0.9 2 2 0 1.1-0.9 2-2 2z"/>
	<path id="Layer 2" class="s2" d="m63.7 138.5c0 0 10.7-3.6 15.3 3.5"/>
	<path id="Shape 3" class="s2" d="m60 135c0 0 14-6.4 25 4"/>
	<path id="Shape 4" class="s2" d="m67.6 30.8c0 0 8.9 4.7 15.4 0.2"/>
	<path id="Layer 1" class="s3" d="m74.4 17.5l66.5 104.2-70.6 23.1-41.5-36.2z"/>
	<text id="A" style="transform: matrix(1,0,0,1,4.914,115.778)" >
		<tspan x="0" y="0" class="t4">A
</tspan>
	</text>
	<text id="B" style="transform: matrix(1,0,0,1,49.914,16.778)" >
		<tspan x="0" y="0" class="t4">B
</tspan>
	</text>
	<text id="C" style="transform: matrix(1,0,0,1,149.914,131.778)" >
		<tspan x="0" y="0" class="t4">C
</tspan>
	</text>
	<text id="D" style="transform: matrix(1,0,0,1,42.914,156.778)" >
		<tspan x="0" y="0" class="t4">D
</tspan>
	</text>
	<text id="O" style="transform: matrix(1,0,0,1,92.914,96.778)" >
		<tspan x="0" y="0" class="t4">O
</tspan>
	</text>
</svg>