<svg version="1.2" xmlns="http://www.w3.org/2000/svg" viewBox="0 0 297 174" width="297" height="174">
	<title>math_1-27</title>
	<style>
		tspan { white-space:pre }
		.s0 { fill: none;stroke: var(--c-title);stroke-linecap: round;stroke-linejoin: round;stroke-width: 2;stroke-dasharray: 0,4 }
		.s1 { fill: none;stroke: var(--c-title);stroke-miterlimit:100;stroke-width: 2 }
		.s2 { fill: none;stroke: var(--c-text);stroke-miterlimit:100;stroke-width: 2 }
		.t3 { font-size: 20px;fill: var(--c-text); }
		.s4 { fill: none;stroke: var(--c-title);stroke-miterlimit:100;stroke-width: 1.5 }
	</style>
	<path id="Layer 2 copy" class="s0" d="m45.7 84h160.5"/>
	<path id="Layer 2" class="s1" d="m94.2 84h62.9"/>
	<path id="Layer 1" class="s2" d="m267.2 149h-241.6l36.4-122h91.2z"/>
	<path id="Layer 3" class="s2" d="m62 28l205 121"/>
	<path id="Layer 4" class="s2" d="m153.3 27.4l-127.3 121.2"/>
	<text id="A" style="transform: matrix(1,0,0,1,7.749,161.296)" >
		<tspan x="0" y="0" class="t3">A
</tspan>
	</text>
	<text id="B" style="transform: matrix(1,0,0,1,41.749,26.296)" >
		<tspan x="0" y="0" class="t3">B
</tspan>
	</text>
	<text id="C" style="transform: matrix(1,0,0,1,163.749,26.296)" >
		<tspan x="0" y="0" class="t3">C
</tspan>
	</text>
	<text id="D" style="transform: matrix(1,0,0,1,272.749,163.296)" >
		<tspan x="0" y="0" class="t3">D
</tspan>
	</text>
	<text id="P" style="transform: matrix(1,0,0,1,68.749,87.296)" >
		<tspan x="0" y="0" class="t3">P
</tspan>
	</text>
	<text id="Q" style="transform: matrix(1,0,0,1,162.749,85.296)" >
		<tspan x="0" y="0" class="t3">Q
</tspan>
	</text>
	<path id="Layer 3" class="s4" d="m29.9 119.7l8.7 2.1"/>
	<path id="Layer 3 copy" class="s4" d="m30.9 115.7l8.7 2.1"/>
	<path id="Layer 3 copy 2" class="s4" d="m48.9 56.7l8.7 2.1"/>
	<path id="Layer 3 copy 3" class="s4" d="m49.9 52.7l8.7 2.1"/>
	<path id="Layer 3 copy 4" class="s4" d="m166.8 48.9l6.3-6.8"/>
	<path id="Layer 3 copy 5" class="s4" d="m169.8 50.9l6.3-6.8"/>
	<path id="Layer 3 copy 6" class="s4" d="m172.8 52.9l6.3-6.8"/>
	<path id="Layer 3 copy 7" class="s4" d="m228.8 115.9l6.3-6.8"/>
	<path id="Layer 3 copy 8" class="s4" d="m231.8 117.9l6.3-6.8"/>
	<path id="Layer 3 copy 9" class="s4" d="m234.8 119.9l6.3-6.8"/>
	<text id="a" style="transform: matrix(1,0,0,1,134.749,166.296)" >
		<tspan x="0" y="0" class="t3">a
</tspan>
	</text>
	<text id="b" style="transform: matrix(1,0,0,1,101.749,22.296)" >
		<tspan x="0" y="0" class="t3">b
</tspan>
	</text>
</svg>