<svg version="1.2" xmlns="http://www.w3.org/2000/svg" viewBox="0 0 236 114" width="236" height="114">
	<title>math_6-2_0</title>
	<style>
		tspan { white-space:pre }
		.t0_0 { font-size: 20px;fill: var(--c-text); }
		.s1_0 { fill: var(--c-text) }
		.s2_0 { fill: none;stroke: var(--c-text);stroke-linecap: round;stroke-linejoin: round;stroke-width: 1.5;stroke-dasharray: 0,3 }
		.s3_0 { fill: var(--c-title) }
	</style>
	<text id="" style="transform: matrix(1,0,0,1,42,37)" >
	</text>
	<text id="a" style="transform: matrix(1,0,0,1,19,42)" >
		<tspan x="0" y="0" class="t0_0">a
</tspan>
	</text>
	<path id="Shape 9" class="s1_0" d="m19.8 28.4v-1h9.7v-2.5l3 3-3 3v-2.5z"/>
	<text id="b" style="transform: matrix(1,0,0,1,69,111)" >
		<tspan x="0" y="0" class="t0_0">b
</tspan>
	</text>
	<path id="Shape 9 copy" class="s1_0" d="m69.8 94.4v-1h9.7v-2.5l3 3-3 3v-2.5z"/>
	<text id="c" style="transform: matrix(1,0,0,1,140,60)" >
		<tspan x="0" y="0" class="t0_0">c</tspan><tspan  y="0" class="t0_0">
</tspan>
	</text>
	<path id="Shape 9 copy 2" class="s1_0" d="m140.8 46.4v-1h9.7v-2.5l3 3-3 3v-2.5z"/>
	<path id="Shape 8" class="s2_0" d="m85 8h147l-83 80"/>
	<path id="Shape 7" class="s1_0" d="m3.4 89.2l-1.4-1.4 71.8-71.8-2.8-2.8 14.1-7.1-7 14.2-2.9-2.9z"/>
	<path id="Shape 7 copy" class="s1_0" d="m3 88v-2h132v-4l15 5-15 5v-4z"/>
	<path id="Shape 7 copy 2" class="s3_0" d="m3.3 87.9l-0.6-1.8 217.6-75.1-1.3-3.8 15.8-0.1-12.6 9.6-1.3-3.8z"/>
</svg>