<svg version="1.2" xmlns="http://www.w3.org/2000/svg" viewBox="0 0 266 176" width="266" height="176">
	<title>math_1-35</title>
	<style>
		tspan { white-space:pre }
		.s0 { fill: none;stroke: var(--c-text);stroke-miterlimit:100;stroke-width: 2 }
		.s1 { fill: none;stroke: var(--c-title);stroke-miterlimit:100;stroke-width: 2 }
		.s2 { opacity: .8;fill: none;stroke: var(--c-title);stroke-miterlimit:100;stroke-width: 2 }
		.t3 { font-size: 24px;fill: var(--c-text); }
		.t4 { font-size: 24px;fill: var(--c-text); }
	</style>
	<path id="Layer 5" class="s0" d="m216 83c0 0-9.9 8.3 1.4 18.3"/>
	<path id="Shape 1" class="s1" d="m23.4 137.8l230.4-43.7-219.3-67.5"/>
	<path id="Layer 2" class="s0" d="m87 169c-44.8 0-81-36.2-81-81 0-44.8 36.2-81 81-81 44.8 0 81 36.2 81 81 0 44.8-36.2 81-81 81z"/>
	<path id="Layer 4" class="s2" d="m34.8 26c0 0-56.5 43.5-11.8 112.6"/>
	<path id="Layer 4 copy" class="s2" d="m165.4 66.9c0 0 5.8 21.1-0.4 43.8"/>
	<text id="A" style="transform: matrix(.634,0,0,.634,169.366,62.407)" >
		<tspan x="0" y="0" class="t3">A
</tspan>
	</text>
	<text id="M" style="transform: matrix(.634,0,0,.634,246.366,86.407)" >
		<tspan x="0" y="0" class="t3">M
</tspan>
	</text>
	<text id="D" style="transform: matrix(.634,0,0,.634,13.366,155.407)" >
		<tspan x="0" y="0" class="t3">D
</tspan>
	</text>
	<text id="B" style="transform: matrix(.634,0,0,.634,22.366,21.407)" >
		<tspan x="0" y="0" class="t3">B
</tspan>
	</text>
	<text id="C" style="transform: matrix(.634,0,0,.634,167.366,133.407)" >
		<tspan x="0" y="0" class="t3">C
</tspan>
	</text>
	<text id="φ" style="transform: matrix(.634,0,0,.634,192.366,94.407)" >
		<tspan x="0" y="0" class="t4">φ</tspan><tspan  y="0" class="t4">
</tspan>
	</text>
</svg>