<svg version="1.2" xmlns="http://www.w3.org/2000/svg" viewBox="0 0 196 161" width="196" height="161">
	<title>math_1-37</title>
	<style>
		tspan { white-space:pre }
		.s0 { fill: none;stroke: var(--c-title);stroke-miterlimit:100;stroke-width: 2 }
		.s1 { fill: none;stroke: var(--c-text);stroke-miterlimit:100;stroke-width: 2 }
		.s2 { fill: var(--c-text) }
		.t3 { font-size: 20px;fill: var(--c-text); }
	</style>
	<path id="Layer 1" class="s0" d="m88.5 136c-29.6 0-53.5-23.9-53.5-53.5 0-29.6 23.9-53.5 53.5-53.5 29.6 0 53.5 23.9 53.5 53.5 0 29.6-23.9 53.5-53.5 53.5z"/>
	<path id="Layer 2" class="s1" d="m42.2 29.1l84.8-1.1 40.5 116.9-141.6-13z"/>
	<path id="Shape 1" class="s2" d="m90 85c-1.1 0-2-0.9-2-2 0-1.1 0.9-2 2-2 1.1 0 2 0.9 2 2 0 1.1-0.9 2-2 2z"/>
	<text id="B" style="transform: matrix(1,0,0,1,28.634,18.183)" >
		<tspan x="0" y="0" class="t3">B
</tspan>
	</text>
	<text id="C" style="transform: matrix(1,0,0,1,129.634,21.183)" >
		<tspan x="0" y="0" class="t3">C
</tspan>
	</text>
	<text id="D" style="transform: matrix(1,0,0,1,176.634,153.183)" >
		<tspan x="0" y="0" class="t3">D
</tspan>
	</text>
	<text id="O" style="transform: matrix(1,0,0,1,94.634,83.183)" >
		<tspan x="0" y="0" class="t3">O
</tspan>
	</text>
	<text id="A" style="transform: matrix(1,0,0,1,5.634,151.183)" >
		<tspan x="0" y="0" class="t3">A
</tspan>
	</text>
	<text id="a" style="transform: matrix(1,0,0,1,15.634,79.183)" >
		<tspan x="0" y="0" class="t3">a
</tspan>
	</text>
	<text id="b" style="transform: matrix(1,0,0,1,82.634,19.183)" >
		<tspan x="0" y="0" class="t3">b
</tspan>
	</text>
	<text id="c" style="transform: matrix(1,0,0,1,148.634,76.183)" >
		<tspan x="0" y="0" class="t3">c
</tspan>
	</text>
	<text id="d" style="transform: matrix(1,0,0,1,79.634,158.183)" >
		<tspan x="0" y="0" class="t3">d
</tspan>
	</text>
</svg>