<svg version="1.2" xmlns="http://www.w3.org/2000/svg" viewBox="0 0 229 183" width="229" height="183">
	<title>math_1-18</title>
	<style>
		tspan { white-space:pre }
		.s0 { fill: none;stroke: var(--c-title);stroke-miterlimit:100;stroke-width: 2 }
		.s1 { fill: none;stroke: var(--c-text);stroke-miterlimit:100;stroke-width: 2 }
		.t2 { font-size: 20px;fill: var(--c-text); }
	</style>
	<path id="Layer 2" class="s0" d="m28 162l115.7-95.1"/>
	<path id="Layer 3" class="s0" d="m204 117l-147.9-27.2"/>
	<path id="Layer 4" class="s0" d="m116.8 139.6l-33.5-121"/>
	<path id="Layer 5" class="s0" d="m77.1 145.7l2.6 7.2"/>
	<path id="Layer 1" class="s1" d="m28 162l55-144 122 99z"/>
	<path id="Layer 5 copy 6" class="s0" d="m35.8 129.1l7.2 2.4"/>
	<path id="Layer 5 copy 7" class="s0" d="m37.8 125.1l7.2 2.4"/>
	<path id="Layer 5 copy 8" class="s0" d="m38.8 121.1l7.2 2.4"/>
	<path id="Layer 5 copy 9" class="s0" d="m58.8 69.1l7.2 2.4"/>
	<path id="Layer 5 copy 10" class="s0" d="m60.8 65.1l7.2 2.4"/>
	<path id="Layer 5 copy 11" class="s0" d="m61.8 61.1l7.2 2.4"/>
	<path id="Layer 5 copy" class="s0" d="m144.1 128.7l2.6 7.2"/>
	<path id="Layer 5 copy 2" class="s0" d="m164 78.9l-3.3 6.8"/>
	<path id="Layer 5 copy 3" class="s0" d="m168 81.9l-3.3 6.8"/>
	<path id="Layer 5 copy 4" class="s0" d="m118 41.9l-3.3 6.8"/>
	<path id="Layer 5 copy 5" class="s0" d="m122 44.9l-3.3 6.8"/>
	<text id="A" style="transform: matrix(1,0,0,1,8.397,169.026)" >
		<tspan x="0" y="0" class="t2">A</tspan><tspan  y="0" class="t2">
</tspan>
	</text>
	<text id="B" style="transform: matrix(1,0,0,1,61.397,19.026)" >
		<tspan x="0" y="0" class="t2">B
</tspan>
	</text>
	<text id="C" style="transform: matrix(1,0,0,1,208.397,125.026)" >
		<tspan x="0" y="0" class="t2">C
</tspan>
	</text>
	<text id="x" style="transform: matrix(1,0,0,1,112.397,81.026)" >
		<tspan x="0" y="0" class="t2">x
</tspan>
	</text>
	<text id="2x" style="transform: matrix(1,0,0,1,55.397,118.026)" >
		<tspan x="0" y="0" class="t2">2</tspan><tspan  y="0" class="t2">x
</tspan>
	</text>
</svg>