<svg version="1.2" xmlns="http://www.w3.org/2000/svg" viewBox="0 0 245 214" width="245" height="214">
	<title>math_2-9</title>
	<style>
		tspan { white-space:pre }
		.s0 { fill: none;stroke: var(--c-text);stroke-miterlimit:100;stroke-width: 2 }
		.s1 { opacity: .2;fill: var(--c-title) }
		.s2 { opacity: .2;fill: var(--c-text) }
		.s3 { fill: none;stroke: var(--c-text);stroke-linejoin: round;stroke-width: 2 }
		.s4 { fill: none;stroke: var(--c-text);stroke-linejoin: round;stroke-width: 1.5 }
		.s5 { fill: var(--c-text) }
		.t6 { font-size: 20px;fill: var(--c-text); }
		.t7 { font-size: 12px;fill: var(--c-text); }
	</style>
	<path id="Shape 1" class="s0" d="m47.8 146.7c4.5-5.5 13.7-10 20.3-10h166.8c6.6 0 8.3 4.5 3.8 10l-43.2 52c-4.5 5.5-13.7 10-20.3 10h-166.8c-6.6 0-8.3-4.5-3.8-10z"/>
	<path id="Shape 1 copy" class="s1" d="m47.8 146.7c4.5-5.5 13.7-10 20.3-10h166.8c6.6 0 8.3 4.5 3.8 10l-43.2 52c-4.5 5.5-13.7 10-20.3 10h-166.8c-6.6 0-8.3-4.5-3.8-10z"/>
	<path id="Shape 2" class="s2" d="m79.5 92.8l113.1-60.6-39.9 79.9z"/>
	<path id="Shape 2 copy" class="s3" d="m79.5 92.8l113.1-60.6-39.9 79.9z"/>
	<path id="Shape 3" class="s3" d="m79.8 176.5l111.9-26.6-38.8 36.7z"/>
	<path id="Shape 4" class="s4" d="m80 30v147"/>
	<path id="Shape 4 copy" class="s4" d="m153 38v147"/>
	<path id="Shape 4 copy 2" class="s4" d="m192 2v147"/>
	<path id="Shape 5" class="s5" d="m79.5 180c-1.4 0-2.5-1.1-2.5-2.5 0-1.4 1.1-2.5 2.5-2.5 1.4 0 2.5 1.1 2.5 2.5 0 1.4-1.1 2.5-2.5 2.5z"/>
	<path id="Shape 5 copy" class="s5" d="m152.5 188c-1.4 0-2.5-1.1-2.5-2.5 0-1.4 1.1-2.5 2.5-2.5 1.4 0 2.5 1.1 2.5 2.5 0 1.4-1.1 2.5-2.5 2.5z"/>
	<path id="Shape 5 copy 2" class="s5" d="m192.5 153c-1.4 0-2.5-1.1-2.5-2.5 0-1.4 1.1-2.5 2.5-2.5 1.4 0 2.5 1.1 2.5 2.5 0 1.4-1.1 2.5-2.5 2.5z"/>
	<path id="Shape 5 copy 3" class="s5" d="m192.5 35c-1.4 0-2.5-1.1-2.5-2.5 0-1.4 1.1-2.5 2.5-2.5 1.4 0 2.5 1.1 2.5 2.5 0 1.4-1.1 2.5-2.5 2.5z"/>
	<path id="Shape 5 copy 4" class="s5" d="m153.5 114c-1.4 0-2.5-1.1-2.5-2.5 0-1.4 1.1-2.5 2.5-2.5 1.4 0 2.5 1.1 2.5 2.5 0 1.4-1.1 2.5-2.5 2.5z"/>
	<path id="Shape 5 copy 5" class="s5" d="m79.5 95c-1.4 0-2.5-1.1-2.5-2.5 0-1.4 1.1-2.5 2.5-2.5 1.4 0 2.5 1.1 2.5 2.5 0 1.4-1.1 2.5-2.5 2.5z"/>
	<text id="A" style="transform: matrix(1,0,0,1,56.065,185.509)" >
		<tspan x="0" y="0" class="t6">A
</tspan>
	</text>
	<text id="A copy" style="transform: matrix(1,0,0,1,62.065,96.509)" >
		<tspan x="0" y="0" class="t6">A
</tspan>
	</text>
	<text id="C" style="transform: matrix(1,0,0,1,157.065,121.509)" >
		<tspan x="0" y="0" class="t6">C
</tspan>
	</text>
	<text id="B" style="transform: matrix(1,0,0,1,198.065,33.509)" >
		<tspan x="0" y="0" class="t6">B
</tspan>
	</text>
	<text id="A" style="transform: matrix(1,0,0,1,56.065,185.509)" >
		<tspan x="0" y="0" class="t6">A</tspan><tspan  y="0" class="t6">
</tspan>
	</text>
	<text id="C" style="transform: matrix(1,0,0,1,156.065,199.509)" >
		<tspan x="0" y="0" class="t6">C</tspan><tspan  y="0" class="t6">
</tspan>
	</text>
	<text id="B" style="transform: matrix(1,0,0,1,192.065,166.509)" >
		<tspan x="0" y="0" class="t6">B</tspan><tspan  y="0" class="t6">
</tspan>
	</text>
	<text id="α" style="transform: matrix(1,0,0,1,23.065,198.509)" >
		<tspan x="0" y="0" class="t6">α
</tspan>
	</text>
	<text id="1" style="transform: matrix(1,0,0,1,204.069,169.869)" >
		<tspan x="0" y="0" class="t7">1
</tspan>
	</text>
	<text id="1 copy" style="transform: matrix(1,0,0,1,170.069,203.869)" >
		<tspan x="0" y="0" class="t7">1
</tspan>
	</text>
	<text id="1 copy 2" style="transform: matrix(1,0,0,1,71.069,190.869)" >
		<tspan x="0" y="0" class="t7">1
</tspan>
	</text>
</svg>