<svg version="1.2" xmlns="http://www.w3.org/2000/svg" viewBox="0 0 243 210" width="243" height="210">
	<title>math_6-0</title>
	<style>
		tspan { white-space:pre }
		.s0 { fill: var(--c-text) }
		.s1 { fill: var(--c-title) }
		.t2 { font-size: 20px;fill: var(--c-text); }
		.t3 { font-size: 12px;fill: var(--c-text); }
		.s4 { fill: none;stroke: var(--c-text);stroke-linecap: round;stroke-linejoin: round;stroke-width: 1.5;stroke-dasharray: 0,3 }
	</style>
	<path id="Shape 6" class="s0" d="m5 184.3v-2h221v-4l15 5-15 5v-4z"/>
	<path id="Shape 6 copy" class="s1" d="m82.1 146.1l-1.4-1.4 81.8-81.8-2.8-2.8 14.2-7.1-7.1 14.1-2.8-2.8z"/>
	<path id="Shape 7" class="s0" d="m26.8 203h-2v-185h-4l5-15 5 15h-4z"/>
	<text id="y" style="transform: matrix(1,0,0,1,8,2)" >
		<tspan x="0" y="15.2" class="t2">y
</tspan>
	</text>
	<text id="y copy" style="transform: matrix(1,0,0,1,5,40)" >
		<tspan x="0" y="15.2" class="t2">y
</tspan>
	</text>
	<text id="y copy 2" style="transform: matrix(1,0,0,1,6,128)" >
		<tspan x="0" y="15.2" class="t2">y
</tspan>
	</text>
	<text id="A" style="transform: matrix(1,0,0,1,65,116)" >
		<tspan x="0" y="15.2" class="t2">A
</tspan>
	</text>
	<text id="A" style="transform: matrix(1,0,0,1,13,141)" >
		<tspan x="0" y="9.1" class="t3">A
</tspan>
	</text>
	<text id="A copy" style="transform: matrix(1,0,0,1,78,198)" >
		<tspan x="0" y="9.1" class="t3">A
</tspan>
	</text>
	<text id="B" style="transform: matrix(1,0,0,1,174,197)" >
		<tspan x="0" y="9.1" class="t3">B
</tspan>
	</text>
	<text id="B copy" style="transform: matrix(1,0,0,1,13,53)" >
		<tspan x="0" y="9.1" class="t3">B
</tspan>
	</text>
	<text id="B" style="transform: matrix(1,0,0,1,158,33)" >
		<tspan x="0" y="15.2" class="t2">B
</tspan>
	</text>
	<text id="x" style="transform: matrix(1,0,0,1,215,187)" >
		<tspan x="0" y="15.2" class="t2">x
</tspan>
	</text>
	<text id="x copy" style="transform: matrix(1,0,0,1,68,187)" >
		<tspan x="0" y="15.2" class="t2">x
</tspan>
	</text>
	<text id="x copy 2" style="transform: matrix(1,0,0,1,163,187)" >
		<tspan x="0" y="15.2" class="t2">x
</tspan>
	</text>
	<text id="0" style="transform: matrix(1,0,0,1,9,188)" >
		<tspan x="0" y="15.2" class="t2">0
</tspan>
	</text>
	<path id="Shape 8" class="s4" d="m83 145h-57"/>
	<path id="Shape 9" class="s4" d="m174 54h-148.1"/>
	<path id="Shape 10" class="s4" d="m83 144v41.5"/>
	<path id="Shape 11" class="s4" d="m174 55v128.1"/>
</svg>