<svg version="1.2" xmlns="http://www.w3.org/2000/svg" viewBox="0 0 254 181" width="254" height="181">
	<title>math_4-0</title>
	<style>
		tspan { white-space:pre }
		.s0 { fill: var(--c-text) }
		.s1 { fill: none;stroke: var(--c-text);stroke-miterlimit:100;stroke-width: 1.5 }
		.s2 { fill: none;stroke: var(--c-title);stroke-miterlimit:100;stroke-width: 1.5 }
		.t3 { font-size: 20px;fill: var(--c-text); }
		.t4 { font-size: 12px;fill: var(--c-text); }
		.s5 { fill: none;stroke: var(--c-text);stroke-linejoin: round;stroke-width: 1.5;stroke-dasharray: 6,3 }
	</style>
	<path id="Shape 6" class="s0" d="m3.6 156.3v-2h226.4v-4l15 5-15 5v-4z"/>
	<path id="Shape 7" class="s0" d="m26.8 177.3h-2v-158.3h-4l5-15 5 15h-4z"/>
	<path id="Shape 8" class="s1" d="m84.7 140.1c0 0 12 1.5 3.8 14.3"/>
	<path id="Shape 9" class="s1" d="m15.3 83.5c0 0 43.2 54.8 71.4 48.9 39.4-8.4 59.5-110.1 137.2-116.3"/>
	<path id="Shape 10" class="s2" d="m48.3 169.1l136.4-112.7"/>
	<text id="x" style="transform: matrix(1,0,0,1,234,160)" >
		<tspan x="0" y="15.2" class="t3">x
</tspan>
	</text>
	<text id="x copy" style="transform: matrix(1,0,0,1,100,155)" >
		<tspan x="0" y="15.2" class="t3">x
</tspan>
	</text>
	<text id="y=f(x)" style="transform: matrix(1,0,0,1,98,27)" >
		<tspan x="0" y="15.2" class="t3">y</tspan><tspan  y="15.2" class="t3">=</tspan><tspan  y="15.2" class="t3">f</tspan><tspan  y="15.2" class="t3">(</tspan><tspan  y="15.2" class="t3">x</tspan><tspan  y="15.2" class="t3">)</tspan><tspan  y="15.2" class="t3">
</tspan>
	</text>
	<text id="y=kx+b" style="transform: matrix(1,0,0,1,151,84)" >
		<tspan x="0" y="15.2" class="t3">y</tspan><tspan  y="15.2" class="t3">=</tspan><tspan  y="15.2" class="t3">k</tspan><tspan  y="15.2" class="t3">x</tspan><tspan  y="15.2" class="t3">+</tspan><tspan  y="15.2" class="t3">b</tspan><tspan  y="15.2" class="t3">
</tspan>
	</text>
	<text id="0" style="transform: matrix(1,0,0,1,111,164)" >
		<tspan x="0" y="9.1" class="t4">0
</tspan>
	</text>
	<text id="y" style="transform: matrix(1,0,0,1,8,5)" >
		<tspan x="0" y="15.2" class="t3">y
</tspan>
	</text>
	<text id="0" style="transform: matrix(1,0,0,1,10,135)" >
		<tspan x="0" y="15.2" class="t3">0
</tspan>
	</text>
	<text id="α" style="transform: matrix(1,0,0,1,91,130)" >
		<tspan x="0" y="15.2" class="t3">α
</tspan>
	</text>
	<path id="Shape 11" class="s5" d="m105 124v32"/>
</svg>