<svg version="1.2" xmlns="http://www.w3.org/2000/svg" viewBox="0 0 599 263" width="300" height="132">
	<title>phy_0-108</title>
	<style>
		tspan { white-space:pre }
		.s0 { fill: var(--c-text) }
		.s1 { fill: none;stroke: var(--c-text);stroke-miterlimit:100;stroke-width: 3 }
		.t2 { font-size: 67px;fill: var(--c-text); }
	</style>
	<path id="Shape 2" class="s0" d="m118.2 38.3l3.5-3.6 170.6 170.6-3.6 3.5z"/>
	<path id="Shape 3" class="s0" d="m291.7 208.6l-3.6-3.5 149.4-149.4 3.5 3.6z"/>
	<path id="Shape 4" class="s0" d="m287.8 13.5h5v191.8h-5z"/>
	<path id="Layer 2" class="s0" d="m21.8 214.9v-5h561.6v5z"/>
	<path id="Shape 1" class="s0" d="m18.4 250.7l-3.5-3.5 37.8-37.8 3.5 3.5z"/>
	<path id="Shape 1 copy" class="s0" d="m70.4 250.7l-3.5-3.5 37.8-37.8 3.5 3.5z"/>
	<path id="Shape 1 copy 2" class="s0" d="m122.4 250.7l-3.5-3.5 37.8-37.8 3.5 3.5z"/>
	<path id="Shape 1 copy 3" class="s0" d="m174.4 250.7l-3.5-3.5 37.8-37.8 3.5 3.5z"/>
	<path id="Shape 1 copy 4" class="s0" d="m226.4 250.7l-3.5-3.5 37.8-37.8 3.5 3.5z"/>
	<path id="Shape 1 copy 5" class="s0" d="m278.4 250.7l-3.5-3.5 37.8-37.8 3.5 3.5z"/>
	<path id="Shape 1 copy 6" class="s0" d="m330.4 250.7l-3.5-3.5 37.8-37.8 3.5 3.5z"/>
	<path id="Shape 1 copy 7" class="s0" d="m382.4 250.7l-3.5-3.5 37.8-37.8 3.5 3.5z"/>
	<path id="Shape 1 copy 8" class="s0" d="m434.4 250.7l-3.5-3.5 37.8-37.8 3.5 3.5z"/>
	<path id="Shape 1 copy 9" class="s0" d="m486.4 250.7l-3.5-3.5 37.8-37.8 3.5 3.5z"/>
	<path id="Shape 1 copy 10" class="s0" d="m538.4 250.7l-3.5-3.5 37.8-37.8 3.5 3.5z"/>
	<path id="Shape 5" class="s1" d="m255 168c0 0 1-29.5 35-12"/>
	<path id="Layer 3" class="s1" d="m332 164.8c0 0 3.2-39.7-39-24.8"/>
	<text id="α" style="transform: matrix(1,0,0,1,232.617,112.588)" >
		<tspan x="0" y="0" class="t2">α
</tspan>
	</text>
	<text id="β" style="transform: matrix(1,0,0,1,316.824,105.773)" >
		<tspan x="0" y="0" class="t2">β
</tspan>
	</text>
	<path id="Shape 6" class="s0" d="m151.1 85l17.2-17.1 20.5 37.1z"/>
	<path id="Shape 6 copy" class="s0" d="m440.2 75.8l-17.3-17 36.8-20.9z"/>
</svg>