<svg version="1.2" xmlns="http://www.w3.org/2000/svg" viewBox="0 0 403 265" width="403" height="265">
	<title>phy_0-61</title>
	<style>
		tspan { white-space:pre }
		.s0 { fill: var(--c-text) }
		.s1 { fill: none;stroke: var(--c-text);stroke-miterlimit:100;stroke-width: 3.2 }
		.t2 { font-size: 21px;fill: var(--c-text); }
		.t3 { font-size: 15px;fill: var(--c-text); }
		.t4 { font-size: 24px;fill: var(--c-text); }
		.s5 { fill: none;stroke: var(--c-text);stroke-miterlimit:100;stroke-width: 3 }
	</style>
	<path id="Shape 2 copy 2" class="s0" d="m72.2 61.7c-3.3 0-6-2.7-6-6 0-3.4 2.7-6.1 6-6.1 3.4 0 6.1 2.7 6.1 6.1 0 3.3-2.7 6-6.1 6z"/>
	<path id="Shape 2 copy" class="s0" d="m91 180.1c-3.3 0-6-2.7-6-6.1 0-3.3 2.7-6 6-6 3.4 0 6.1 2.7 6.1 6 0 3.4-2.7 6.1-6.1 6.1z"/>
	<path id="Shape 1" class="s1" d="m71.9 52.4c0 0-21.7 58 19.6 123.5"/>
	<path id="Layer 2" class="s1" d="m73.6 54c0 0 23.4 49.8 217.8 42.3"/>
	<path id="Layer 3" class="s1" d="m91.5 174.3c0 0 146.9 57.5 255.9 42"/>
	<path id="Layer 4" class="s1" d="m289.8 96.3c0 0 5.9 70.3 57.6 120.5"/>
	<path id="Shape 2" class="s0" d="m288.8 103.4c-3.4 0-6.1-2.7-6.1-6 0-3.4 2.7-6.1 6.1-6.1 3.3 0 6 2.7 6 6.1 0 3.3-2.7 6-6 6z"/>
	<path id="Shape 2 copy 3" class="s0" d="m346.6 221.8c-3.4 0-6.1-2.7-6.1-6.1 0-3.3 2.7-6 6.1-6 3.3 0 6 2.7 6 6 0 3.4-2.7 6.1-6 6.1z"/>
	<text id="Изотерма" style="transform: matrix(1.146,.098,-0.098,1.146,129.009,69.323)" >
		<tspan x="0" y="0" class="t2">И</tspan><tspan  y="0" class="t2">з</tspan><tspan  y="0" class="t2">о</tspan><tspan  y="0" class="t2">т</tspan><tspan  y="0" class="t2">е</tspan><tspan  y="0" class="t2">р</tspan><tspan  y="0" class="t2">м</tspan><tspan  y="0" class="t2">а</tspan><tspan  y="0" class="t2">
</tspan>
	</text>
	<text id="Изотерма copy" style="transform: matrix(1.146,.098,-0.098,1.146,134.166,175.265)" >
		<tspan x="0" y="0" class="t2">И</tspan><tspan  y="0" class="t2">з</tspan><tspan  y="0" class="t2">о</tspan><tspan  y="0" class="t2">т</tspan><tspan  y="0" class="t2">е</tspan><tspan  y="0" class="t2">р</tspan><tspan  y="0" class="t2">м</tspan><tspan  y="0" class="t2">а</tspan><tspan  y="0" class="t2">
</tspan>
	</text>
	<text id="Адиабата" style="transform: matrix(.958,1.313,-1.313,.958,299.873,96.429)" >
		<tspan x="0" y="0" class="t3">А</tspan><tspan  y="0" class="t3">д</tspan><tspan  y="0" class="t3">и</tspan><tspan  y="0" class="t3">а</tspan><tspan  y="0" class="t3">б</tspan><tspan  y="0" class="t3">а</tspan><tspan  y="0" class="t3">т</tspan><tspan  y="0" class="t3">а
</tspan>
	</text>
	<text id="Адиабата copy" style="transform: matrix(.459,1.559,-1.559,.459,21.666,55.64)" >
		<tspan x="0" y="0" class="t3">А</tspan><tspan  y="0" class="t3">д</tspan><tspan  y="0" class="t3">и</tspan><tspan  y="0" class="t3">а</tspan><tspan  y="0" class="t3">б</tspan><tspan  y="0" class="t3">а</tspan><tspan  y="0" class="t3">т</tspan><tspan  y="0" class="t3">а
</tspan>
	</text>
	<text id="A" style="transform: matrix(1,0,0,1,59.03,40.09)" >
		<tspan x="0" y="0" class="t4">A
</tspan>
	</text>
	<text id="B" style="transform: matrix(1,0,0,1,287.526,79.526)" >
		<tspan x="0" y="0" class="t4">B
</tspan>
	</text>
	<text id="C" style="transform: matrix(1,0,0,1,355.97,234.714)" >
		<tspan x="0" y="0" class="t4">C
</tspan>
	</text>
	<text id="D" style="transform: matrix(1,0,0,1,72.722,201.992)" >
		<tspan x="0" y="0" class="t4">D
</tspan>
	</text>
	<path id="Shape 3" class="s5" d="m14 264.1v-252.5"/>
	<path id="Layer 5" class="s5" d="m1 252h391"/>
	<path id="Layer 6" class="s0" d="m396 252l-20-9v17zm0 0l-20-9v17z"/>
	<path id="Layer 6 copy" class="s0" d="m14 3l-9 20h17zm0 0l-9 20h17z"/>
</svg>